<?xml version="1.0" encoding="UTF-8" standalone="no"?>
<!-- Created with Inkscape (http://www.inkscape.org/) -->

<svg
   xmlns:dc="http://purl.org/dc/elements/1.1/"
   xmlns:cc="http://creativecommons.org/ns#"
   xmlns:rdf="http://www.w3.org/1999/02/22-rdf-syntax-ns#"
   xmlns:svg="http://www.w3.org/2000/svg"
   xmlns="http://www.w3.org/2000/svg"
   xmlns:sodipodi="http://sodipodi.sourceforge.net/DTD/sodipodi-0.dtd"
   xmlns:inkscape="http://www.inkscape.org/namespaces/inkscape"
   width="24.037893mm"
   height="13.454559mm"
   viewBox="0 0 24.037893 13.454559"
   version="1.1"
   id="svg8"
   inkscape:version="0.92.5 (2060ec1f9f, 2020-04-08)"
   sodipodi:docname="ford_logo.svg">
  <defs
     id="defs2">
    <clipPath
       clipPathUnits="userSpaceOnUse"
       id="clipPath975">
      <rect
         style="fill:none;fill-opacity:1;fill-rule:nonzero;stroke:#241f1c;stroke-width:3.9731636;stroke-miterlimit:4;stroke-dasharray:none;stroke-opacity:1"
         id="rect977"
         width="314.39993"
         height="175.97684"
         x="22.745132"
         y="2.0364342" />
    </clipPath>
  </defs>
  <sodipodi:namedview
     id="base"
     pagecolor="#ffffff"
     bordercolor="#666666"
     borderopacity="1.0"
     inkscape:pageopacity="0.0"
     inkscape:pageshadow="2"
     inkscape:zoom="1"
     inkscape:cx="-78.902171"
     inkscape:cy="39.42718"
     inkscape:document-units="mm"
     inkscape:current-layer="layer1"
     showgrid="false"
     fit-margin-top="0"
     fit-margin-left="0"
     fit-margin-right="0"
     fit-margin-bottom="0"
     inkscape:window-width="1920"
     inkscape:window-height="1031"
     inkscape:window-x="0"
     inkscape:window-y="25"
     inkscape:window-maximized="1" />
  <metadata
     id="metadata5">
    <rdf:RDF>
      <cc:Work
         rdf:about="">
        <dc:format>image/svg+xml</dc:format>
        <dc:type
           rdf:resource="http://purl.org/dc/dcmitype/StillImage" />
        <dc:title></dc:title>
      </cc:Work>
    </rdf:RDF>
  </metadata>
  <g
     inkscape:label="Layer 1"
     inkscape:groupmode="layer"
     id="layer1"
     transform="translate(-115.92634,-148.83436)">
    <g
       id="g929"
       transform="matrix(0.07645642,0,0,0.07645642,114.18733,148.67866)"
       clip-path="url(#clipPath975)">
      <g
         id="Positional_Box">
	<rect
   id="rect896"
   height="179.95"
   width="359.89001"
   class="st0"
   y="0.050000001"
   x="0"
   style="fill:none" />

</g>
      <g
         id="Ford_Oval">
	<g
   id="g901">
		<path
   id="path899"
   d="m 180,36.06 c -79.93,0 -144.01,23.96 -144.01,54 0,29.86 64.6,54 144.01,54 79.41,0 144.01,-24.22 144.01,-54 0,-29.78 -64.6,-54 -144.01,-54 z"
   class="st1"
   inkscape:connector-curvature="0"
   style="fill:#00095b" />

	</g>

	<path
   id="path903"
   d="m 264.6,74.56 c 0.19,-0.33 -0.01,-0.57 -0.43,-0.57 -2.17,0 -5.02,0 -7.28,0 -0.54,0 -0.82,0.07 -1.07,0.57 -0.83,1.6 -11,16.84 -12.9,19.8 -0.32,0.45 -0.71,0.39 -0.75,-0.12 -0.19,-1.76 -1.71,-3.78 -4.1,-4.75 -1.82,-0.74 -3.61,-0.87 -5.46,-0.63 -3.34,0.45 -6.33,2.21 -8.95,4.2 -3.95,3 -7.36,6.89 -11.75,9.77 -2.4,1.56 -5.69,2.93 -7.89,0.89 -1.99,-1.85 -1.77,-5.95 1.28,-9.12 0.32,-0.33 0.71,-0.05 0.65,0.24 -0.29,1.43 0.07,2.86 1.15,3.86 1.33,1.19 3.23,1.33 4.86,0.53 1.92,-0.95 3.05,-2.79 3.38,-4.88 0.51,-3.24 -1.98,-6.09 -5.1,-6.32 -2.53,-0.18 -4.96,0.7 -7.33,2.66 -1.19,0.98 -1.86,1.71 -2.89,3.17 -0.25,0.36 -0.63,0.4 -0.62,-0.13 0.12,-4.14 -1.6,-6.47 -5.02,-6.55 -2.66,-0.06 -5.5,1.38 -7.71,3.14 -2.43,1.95 -4.55,4.53 -6.82,6.96 -0.28,0.3 -0.53,0.29 -0.61,-0.29 -0.07,-2.75 -0.76,-5.4 -2.03,-7.29 -0.45,-0.66 -1.4,-0.98 -2.19,-0.54 -0.37,0.2 -1.64,0.79 -2.57,1.54 -0.46,0.38 -0.64,0.93 -0.44,1.63 1.23,4.1 0.96,8.76 -0.71,12.7 -1.53,3.61 -4.5,6.86 -7.99,7.96 -2.3,0.73 -4.69,0.37 -6.17,-1.67 -2.03,-2.81 -1.21,-7.71 1.82,-11.77 2.67,-3.58 6.54,-5.85 10.39,-7.31 0.45,-0.17 0.55,-0.47 0.42,-0.85 -0.21,-0.63 -0.54,-1.5 -0.68,-1.89 -0.35,-0.94 -1.34,-1.09 -2.55,-0.96 -2.8,0.33 -5.33,1.29 -7.82,2.62 -6.54,3.5 -9.81,10.27 -11.25,13.9 -0.69,1.74 -1.28,2.83 -2.05,3.79 -1.03,1.29 -2.32,2.47 -4.69,4.55 -0.21,0.19 -0.37,0.59 -0.19,0.96 0.24,0.5 1.47,2.24 1.82,2.39 0.38,0.19 0.83,-0.08 1.01,-0.2 1.66,-1.12 3.63,-2.9 4.6,-4.11 0.34,-0.41 0.69,-0.24 0.87,0.39 0.9,3.23 3.27,5.86 6.55,6.96 5.99,2.02 12.21,-0.9 16.9,-6 2.98,-3.24 4.06,-5.32 5.2,-6.73 1.94,-2.4 5.76,-7.77 10.31,-11.22 1.67,-1.27 3.64,-2.24 4.64,-1.6 0.8,0.52 1.05,1.72 -0.22,4.04 -4.64,8.47 -11.47,18.43 -12.72,20.84 -0.23,0.42 -0.03,0.75 0.41,0.75 2.43,-0.01 4.83,-0.01 7.04,-0.01 0.37,-0.02 0.53,-0.18 0.71,-0.44 3.56,-5.57 6.91,-10.88 10.5,-16.36 0.2,-0.32 0.39,-0.07 0.39,0.07 0.07,1.27 0.39,3.01 1.14,4.16 1.36,2.11 3.28,3.02 5.42,3.04 1.7,0.02 2.56,-0.24 4.39,-0.92 1.49,-0.55 2.69,-1.28 3.6,-1.93 0.54,-0.37 0.63,0.25 0.62,0.35 -0.82,4.42 0.19,9.67 4.59,11.84 5.26,2.59 11.04,-1.05 14.37,-4.34 0.33,-0.32 0.67,-0.28 0.71,0.4 0.07,1.26 0.64,2.75 1.68,3.79 2.79,2.8 8.41,1.69 14.06,-2.68 3.62,-2.8 7.42,-6.75 10.84,-10.94 0.13,-0.16 0.22,-0.42 -0.02,-0.69 -0.52,-0.55 -1.28,-1.17 -1.79,-1.65 -0.24,-0.2 -0.58,-0.14 -0.78,0.01 -3.51,3.34 -6.67,7.15 -11.24,10.3 -1.54,1.08 -4,1.94 -5.1,0.45 -0.43,-0.58 -0.38,-1.38 0.04,-2.43 1.34,-3.32 22.43,-35.43 23.52,-37.33 z m -27.88,26.93 c 0.04,0.25 0.36,0.48 0.68,0.6 0.11,0.04 0.17,0.12 0.05,0.38 -0.9,1.92 -1.72,3.03 -2.85,4.7 -1.03,1.54 -2.2,2.75 -3.61,3.9 -2.13,1.76 -5.08,3.68 -7.52,2.39 -1.08,-0.56 -1.55,-2.08 -1.53,-3.31 0.06,-3.46 1.59,-7 4.43,-10.49 3.46,-4.26 7.29,-6.47 9.8,-5.26 2.6,1.24 1.77,4.25 0.61,6.61 -0.1,0.18 -0.1,0.33 -0.06,0.48 z"
   class="st2"
   inkscape:connector-curvature="0"
   style="fill:#ffffff" />

	<path
   id="path905"
   d="m 111.62,119.77 c -7.86,0.06 -14.79,-4.8 -15.59,-13.22 -0.44,-4.66 0.88,-8.82 3.51,-12.24 2.34,-3.05 6.3,-5.58 9.65,-6.2 1.09,-0.2 2.56,-0.07 3.16,0.65 0.95,1.11 0.68,2.32 -0.27,2.81 -2.56,1.31 -5.64,3.54 -7.16,6.59 -1.24,2.49 -1.49,5.5 0.4,8.36 3.16,4.77 11.96,4.9 20.15,-2.71 2.03,-1.86 3.84,-3.65 5.69,-5.77 3.6,-4.12 4.8,-5.62 9.6,-12.27 0.06,-0.08 0.07,-0.18 0.05,-0.23 -0.04,-0.08 -0.11,-0.11 -0.25,-0.12 -3.2,0.09 -5.99,1.04 -8.7,3.07 -0.78,0.57 -1.9,0.49 -2.4,-0.26 -0.55,-0.85 -0.15,-1.95 0.75,-2.57 4.36,-3.03 9.12,-3.58 13.99,-4.4 0,0 0.34,0.02 0.62,-0.35 2,-2.56 3.5,-4.88 5.63,-7.47 2.14,-2.63 4.92,-5.04 7.03,-6.86 2.96,-2.54 4.85,-3.4 6.78,-4.44 0.51,-0.26 -0.06,-0.58 -0.22,-0.58 -10.75,-2.02 -21.93,-4.64 -32.61,-0.68 -7.4,2.76 -10.64,8.63 -9.08,12.54 1.11,2.78 4.76,3.23 8.19,1.56 2.84,-1.39 5.47,-3.64 7.34,-6.53 1.04,-1.6 3.24,-0.45 2.05,2.34 -3.12,7.35 -9.1,13.17 -16.37,13.42 -6.19,0.2 -10.18,-4.35 -10.17,-9.97 0.02,-11.08 12.36,-18.38 25.32,-19.47 15.61,-1.29 30.4,2.87 45.89,4.75 11.88,1.44 23.26,1.47 35.2,-1.27 1.41,-0.31 2.4,0.59 2.31,2.02 -0.12,2.06 -1.71,4.04 -5.64,6.19 -4.47,2.45 -9.15,3.2 -14.03,3.24 -11.81,0.1 -22.82,-4.51 -34.2,-6.98 0.02,0.5 0.14,1.09 -0.27,1.41 -6.31,4.65 -12.01,9.38 -15.83,16.01 -0.13,0.15 -0.06,0.3 0.16,0.28 3.32,-0.18 6.3,-0.26 9.39,-0.51 0.54,-0.04 0.56,-0.18 0.51,-0.58 -0.27,-2.29 0.39,-4.89 2.41,-6.69 2.06,-1.85 4.64,-2.06 6.35,-0.73 1.94,1.51 1.77,4.24 0.71,6.28 -1.08,2.07 -2.87,3.18 -4.58,3.72 0,0 -0.36,0.08 -0.31,0.41 0.07,0.52 2.4,1.82 2.6,2.16 0.19,0.33 0.09,0.84 -0.26,1.23 -0.25,0.28 -0.63,0.55 -1.13,0.54 -0.4,-0.01 -0.64,-0.15 -1.16,-0.42 -1.05,-0.57 -2.36,-1.5 -3.23,-2.6 -0.3,-0.37 -0.45,-0.38 -1.19,-0.34 -3.35,0.19 -8.57,0.7 -12.11,1.14 -0.86,0.11 -0.98,0.27 -1.16,0.56 -5.64,9.3 -11.66,19.33 -18.28,26.05 -7.09,7.19 -12.99,9.08 -19.24,9.13 z m 53.75,-41.33 c 0.09,0.48 0.28,0.57 0.49,0.53 1.07,-0.21 2.25,-1.1 2.95,-2.12 0.63,-0.93 0.93,-2.27 0.3,-2.81 -0.56,-0.48 -1.48,-0.35 -2.15,0.25 -1.35,1.19 -1.76,2.88 -1.59,4.15 v 0"
   class="st2"
   inkscape:connector-curvature="0"
   style="fill:#ffffff" />

	<path
   id="path907"
   d="m 180,139.35 c -76.22,0 -138,-22.06 -138,-49.28 0,-27.22 61.78,-49.28 138,-49.28 76.21,0 137.98,22.06 137.98,49.28 0,27.22 -61.78,49.28 -137.98,49.28 z m 0,-94.46 c -73.54,0 -133.14,20.32 -133.14,45.18 0,24.87 59.61,45.19 133.14,45.19 73.53,0 133.14,-20.32 133.14,-45.19 C 313.13,65.21 253.53,44.89 180,44.89 Z"
   class="st2"
   inkscape:connector-curvature="0"
   style="fill:#ffffff" />

</g>
      <g
         id="grid">
</g>
    </g>
  </g>
  <style
     id="style894"
     type="text/css">
	.st0{fill:none;}
	.st1{fill:#00095B;}
	.st2{fill:#FFFFFF;}
</style>
</svg>
