<?xml version="1.0" encoding="UTF-8"?>
<!-- Generated by Pixelmator Pro 3.3.13 -->
<svg width="92" height="52" viewBox="0 0 92 52" xmlns="http://www.w3.org/2000/svg">
    <g id="Ford-logo-US">
        <g id="positionalbox">
            <path id="Path" fill="none" stroke="none" d="M -5.190588 -3 L 96.331779 -3 L 96.331779 49 L -5.190588 49 Z"/>
        </g>
        <g id="FordScript">
            <path id="path1" fill="#00095b" stroke="none" d="M 85.899612 17.029758 C 85.990898 16.873276 85.895264 16.755913 85.695313 16.755913 C 84.656441 16.755913 83.295921 16.760262 82.217926 16.760262 C 81.961472 16.760262 81.826721 16.790688 81.705009 17.029758 C 81.305115 17.794785 76.441116 25.084259 75.536995 26.496948 C 75.384857 26.714285 75.197952 26.683859 75.176216 26.436094 C 75.08493 25.597176 74.359024 24.627853 73.215836 24.167099 C 72.346489 23.815012 71.490181 23.749811 70.607796 23.867174 C 69.008194 24.080164 67.582466 24.927776 66.330605 25.875366 C 64.444122 27.30979 62.814095 29.170193 60.710278 30.548107 C 59.56274 31.295746 57.989223 31.947756 56.937305 30.974089 C 55.985378 30.091698 56.094044 28.131323 57.550198 26.614309 C 57.702335 26.453482 57.889244 26.58823 57.858818 26.731672 C 57.719719 27.418459 57.889244 28.100895 58.410858 28.579037 C 59.045475 29.148457 59.953941 29.213659 60.732014 28.831148 C 61.649174 28.374739 62.188164 27.4967 62.348999 26.501297 C 62.592415 24.953856 61.401405 23.588982 59.91048 23.480312 C 58.697735 23.393379 57.537159 23.815012 56.407009 24.749561 C 55.841934 25.219007 55.51593 25.566748 55.029091 26.266573 C 54.911732 26.436094 54.724819 26.453482 54.733517 26.20137 C 54.790024 24.219259 53.972836 23.106495 52.334114 23.067375 C 51.064869 23.036947 49.704342 23.728079 48.648083 24.571344 C 47.487507 25.501547 46.474716 26.740366 45.388031 27.900942 C 45.253284 28.044386 45.135921 28.035694 45.096802 27.757504 C 45.062027 26.444786 44.736023 25.175541 44.12748 24.271421 C 43.91449 23.958454 43.462429 23.801971 43.079918 24.014963 C 42.906048 24.11059 42.293156 24.393129 41.849789 24.749561 C 41.628105 24.932125 41.545517 25.192928 41.641144 25.531973 C 42.227955 27.492352 42.097553 29.722227 41.302101 31.604364 C 40.57185 33.330017 39.150467 34.88615 37.481319 35.412106 C 36.381596 35.759842 35.238403 35.590321 34.529884 34.616653 C 33.560566 33.273506 33.951771 30.930618 35.399231 28.991974 C 36.677174 27.283707 38.524536 26.197023 40.36755 25.497198 C 40.584888 25.414612 40.628357 25.275517 40.567501 25.088608 C 40.467529 24.784334 40.306698 24.371395 40.241497 24.184486 C 40.071972 23.736771 39.598179 23.662876 39.020065 23.72373 C 37.681267 23.880213 36.472878 24.33662 35.277523 24.975592 C 32.152222 26.649084 30.587395 29.887403 29.900614 31.621752 C 29.570261 32.456322 29.287722 32.973587 28.922598 33.434341 C 28.431416 34.051575 27.809832 34.616653 26.67968 35.612053 C 26.575359 35.703339 26.501467 35.894592 26.5884 36.068459 C 26.705759 36.307533 27.292572 37.137756 27.457747 37.211655 C 27.640308 37.302937 27.857645 37.17688 27.940235 37.116028 C 28.73134 36.581375 29.678928 35.729416 30.14403 35.151299 C 30.304861 34.955696 30.474382 35.038284 30.561316 35.338211 C 30.995989 36.881302 32.126141 38.141857 33.690964 38.667809 C 36.555466 39.632786 39.528629 38.233139 41.771549 35.798965 C 43.197277 34.251526 43.710194 33.256126 44.257881 32.578033 C 45.183735 31.430494 47.009365 28.861574 49.18708 27.214161 C 49.986881 26.605618 50.930122 26.144865 51.403915 26.449135 C 51.78643 26.696898 51.908138 27.270668 51.295246 28.38343 C 49.078411 32.434589 45.814011 37.194267 45.214161 38.350498 C 45.105495 38.550446 45.201122 38.706928 45.409767 38.706928 C 46.570347 38.702583 47.722233 38.702583 48.774139 38.702583 C 48.948009 38.69389 49.026253 38.615646 49.117535 38.489594 C 50.821453 35.825043 52.421047 33.286552 54.138016 30.665466 C 54.233643 30.508984 54.320576 30.630695 54.324921 30.700241 C 54.359695 31.308786 54.511833 32.143356 54.872608 32.686699 C 55.520271 33.695145 56.44178 34.129814 57.463264 34.138512 C 58.276104 34.147202 58.684696 34.025497 59.56274 33.69949 C 60.275604 33.434341 60.849369 33.086601 61.284042 32.773636 C 61.540504 32.595421 61.583969 32.895348 61.579624 32.938812 C 61.184071 35.055672 61.67091 37.559391 63.774727 38.602608 C 66.291481 39.841427 69.056007 38.098389 70.646919 36.524872 C 70.803398 36.372734 70.968575 36.390121 70.985962 36.716125 C 71.020737 37.315975 71.29023 38.028839 71.790108 38.528717 C 73.124557 39.867512 75.810837 39.337208 78.510162 37.246426 C 80.244507 35.907631 82.057098 34.016804 83.695816 32.017303 C 83.756676 31.93906 83.800133 31.817352 83.682777 31.691298 C 83.435013 31.430494 83.074234 31.130568 82.826469 30.90019 C 82.713455 30.804562 82.548279 30.830645 82.452652 30.904539 C 80.774811 32.49979 79.262146 34.321075 77.075737 35.829391 C 76.341141 36.342308 75.163177 36.759594 74.637215 36.04673 C 74.432922 35.768539 74.454651 35.386024 74.658951 34.881805 C 75.289223 33.290894 85.378006 17.938225 85.899612 17.029758 Z M 72.568169 29.904789 C 72.589905 30.022152 72.742043 30.135168 72.89418 30.191675 C 72.946335 30.209063 72.976768 30.24818 72.915909 30.374237 C 72.48558 31.291399 72.094383 31.821701 71.555382 32.621498 C 71.059853 33.360443 70.503471 33.934212 69.829727 34.486248 C 68.812592 35.329517 67.399902 36.242332 66.230629 35.62944 C 65.713371 35.359943 65.487343 34.634041 65.496033 34.04723 C 65.52211 32.39547 66.256706 30.695894 67.612892 29.031097 C 69.269005 26.992477 71.098976 25.93622 72.298676 26.514336 C 73.54184 27.105492 73.146286 28.544262 72.589905 29.674412 C 72.550789 29.761349 72.54644 29.835241 72.568169 29.904789 Z"/>
            <path id="path2" fill="#00095b" stroke="none" d="M 12.748392 38.646076 C 8.988465 38.672157 5.676252 36.350998 5.298086 32.32592 C 5.085096 30.096046 5.715373 28.109587 6.980273 26.475214 C 8.097384 25.019058 9.992561 23.806318 11.596506 23.510742 C 12.118115 23.415113 12.81794 23.475967 13.10917 23.819359 C 13.565579 24.349661 13.43083 24.927776 12.978768 25.1625 C 11.757337 25.788431 10.283792 26.857729 9.557888 28.313885 C 8.966731 29.504889 8.849369 30.943659 9.749144 32.308537 C 11.257462 34.590572 15.469448 34.651428 19.38151 31.013206 C 20.350832 30.122126 21.215834 29.270164 22.098221 28.257378 C 23.823875 26.288303 24.393297 25.566748 26.688374 22.389282 C 26.714455 22.354509 26.723146 22.302347 26.710108 22.280615 C 26.69272 22.241493 26.657946 22.228455 26.592747 22.224106 C 25.062695 22.267574 23.728247 22.723982 22.432919 23.693304 C 22.059099 23.967148 21.524452 23.928028 21.285381 23.567247 C 21.024578 23.163002 21.211487 22.6327 21.641813 22.337122 C 23.728247 20.885313 26.005936 20.62451 28.331442 20.233303 C 28.331442 20.233303 28.49227 20.241999 28.62702 20.06378 C 29.5833 18.838001 30.304861 17.733929 31.321995 16.49511 C 32.347824 15.238903 33.67358 14.082672 34.686367 13.21767 C 36.099056 12.000584 37.003178 11.591991 37.924686 11.092117 C 38.168102 10.966061 37.89426 10.813927 37.820362 10.813927 C 32.678177 9.848949 27.336039 8.597092 22.228624 10.487923 C 18.694727 11.80933 17.142942 14.612972 17.890579 16.48642 C 18.420883 17.816517 20.16827 18.029507 21.80699 17.22971 C 23.167517 16.564655 24.423723 15.491016 25.314806 14.108753 C 25.814682 13.343727 26.86659 13.89576 26.297169 15.225864 C 24.801891 18.738026 21.946085 21.524282 18.468697 21.641644 C 15.508569 21.737272 13.600352 19.559559 13.6047 16.873276 C 13.61774 11.574604 19.51626 8.08852 25.710358 7.562565 C 33.173706 6.945332 40.241497 8.931789 47.652683 9.831562 C 53.329521 10.518349 58.775982 10.535736 64.478897 9.223019 C 65.152641 9.075233 65.626434 9.505558 65.58297 10.187996 C 65.526459 11.174706 64.765785 12.122295 62.883644 13.148125 C 60.745052 14.321743 58.51083 14.673828 56.172283 14.69556 C 50.525871 14.743378 45.261978 12.539581 39.819866 11.357269 C 39.828556 11.59634 39.889412 11.878876 39.689461 12.031013 C 36.677174 14.256542 33.951771 16.516846 32.126141 19.68996 C 32.065285 19.763855 32.10006 19.833405 32.20438 19.824707 C 33.790939 19.742123 35.216671 19.698654 36.694561 19.581291 C 36.951015 19.559559 36.964058 19.494358 36.937977 19.307449 C 36.807575 18.21207 37.124886 16.968903 38.089863 16.10825 C 39.072227 15.225864 40.306698 15.125889 41.123886 15.760509 C 42.054089 16.48642 41.971497 17.786091 41.462929 18.764107 C 40.945667 19.755161 40.093708 20.285465 39.272175 20.54192 C 39.272175 20.54192 39.102654 20.581043 39.124386 20.737526 C 39.159161 20.989634 40.276272 21.606871 40.371899 21.772047 C 40.463181 21.928528 40.415367 22.171946 40.245842 22.358856 C 40.128483 22.493605 39.941574 22.619659 39.706848 22.615314 C 39.515591 22.610966 39.398232 22.545765 39.154812 22.411016 C 38.654938 22.137173 38.029007 21.693806 37.607376 21.16785 C 37.463932 20.989634 37.394386 20.985289 37.037952 21.007021 C 35.438354 21.098303 32.93898 21.341721 31.2481 21.550364 C 30.839506 21.602524 30.778652 21.676418 30.691719 21.81986 C 27.992393 26.266573 25.114857 31.065369 21.954779 34.273262 C 18.564325 37.715874 15.743293 38.624344 12.748392 38.646076 Z M 38.45499 18.881466 C 38.498455 19.111843 38.585392 19.155315 38.689713 19.133579 C 39.202625 19.029259 39.767704 18.607624 40.098057 18.120789 C 40.402325 17.677422 40.545769 17.034103 40.241497 16.777649 C 39.972 16.547272 39.537327 16.612469 39.211323 16.899357 C 38.568005 17.468777 38.368053 18.28162 38.45499 18.881466 Z"/>
        </g>
    </g>
</svg>
